<?xml version="1.0" encoding="UTF-8"?>
<!DOCTYPE svg PUBLIC "-//W3C//DTD SVG 1.1//EN" "http://www.w3.org/Graphics/SVG/1.1/DTD/svg11.dtd">
<!-- Creator: CorelDRAW -->
<svg xmlns="http://www.w3.org/2000/svg" xml:space="preserve" width="24.2809mm" height="24.2809mm" version="1.1" style="shape-rendering:geometricPrecision; text-rendering:geometricPrecision; image-rendering:optimizeQuality; fill-rule:evenodd; clip-rule:evenodd"
viewBox="0 0 232.21 232.21"
 xmlns:xlink="http://www.w3.org/1999/xlink"
 xmlns:xodm="http://www.corel.com/coreldraw/odm/2003">
 <defs>
  <style type="text/css">
   <![CDATA[
    .fil1 {fill:#FEFEFE}
    .fil0 {fill:#BCE70C}
   ]]>
  </style>
 </defs>
 <g id="Layer_x0020_1">
  <metadata id="CorelCorpID_0Corel-Layer"/>
  <circle class="fil0" cx="116.11" cy="116.11" r="116.11"/>
  <path class="fil1" d="M169.61 67.68l-112.91 112.28 25.62 0 100.01 -99.52 6.41 6.46 9.03 -33.27 0 -1.38 -34.4 9.09 6.25 6.34zm-126.06 80.65l36.33 -36.05 -4.6 -4.63 7.78 -7.75 -2.83 -2.84 -7.78 7.75 -5.3 -5.33 -23.6 23.39 0 25.46zm114.35 -82.73l-114.35 0 0 47.83 18.05 -18.14 0 -11.63 78.25 0 0 4.03 18.05 -17.86 0 -4.24zm-111.04 114.35l74.62 -74.15 -4.05 -4.07 13.35 -13.27 -6.32 0 -10.18 10.11 -5.54 -5.57 -65.19 64.78 0 22.17 3.31 0zm92.99 -47.39l0 29.34 -29.5 0 -18.16 18.07 65.71 0 0 -65.38 -18.05 17.96z"/>
 </g>
</svg>
