<?xml version="1.0" encoding="UTF-8"?>
<svg xmlns="http://www.w3.org/2000/svg" xmlns:xlink="http://www.w3.org/1999/xlink" width="166px" height="41px" viewBox="0 0 166 41" version="1.1">
<g id="surface1">
<path style=" stroke:none;fill-rule:evenodd;fill:rgb(73.72549%,90.588235%,4.705882%);fill-opacity:1;" d="M 5.734375 10.023438 L 30.59375 10.023438 L 30.59375 11.308594 L 36.328125 5.609375 L 36.328125 4.257812 L 0 4.257812 L 0 19.519531 L 5.734375 13.730469 Z M 99.113281 36.808594 C 99.113281 34.730469 97.4375 33.050781 95.371094 33.050781 C 93.304688 33.050781 91.628906 34.730469 91.628906 36.808594 C 91.628906 38.882812 93.304688 40.5625 95.371094 40.5625 C 97.4375 40.5625 99.113281 38.882812 99.113281 36.808594 Z M 106.769531 22.164062 C 106.769531 24.238281 108.445312 25.921875 110.507812 25.921875 C 112.574219 25.921875 114.25 24.238281 114.25 22.164062 C 114.25 20.089844 112.574219 18.40625 110.507812 18.40625 C 108.441406 18.40625 106.769531 20.089844 106.769531 22.164062 Z M 92.230469 18.730469 L 107.402344 40.664062 L 115.289062 40.664062 L 100.117188 18.730469 Z M 61.539062 20.730469 L 64.167969 20.730469 L 64.167969 23.296875 L 66.597656 23.296875 L 66.597656 18.324219 L 61.539062 18.324219 Z M 30.59375 34.984375 L 21.21875 34.984375 L 15.453125 40.746094 L 36.328125 40.746094 L 36.328125 19.886719 L 30.59375 25.621094 Z M 20.707031 13 L 0 33.671875 L 0 40.742188 L 1.050781 40.742188 L 24.757812 17.085938 L 23.46875 15.785156 L 27.710938 11.550781 L 25.703125 11.550781 L 22.46875 14.777344 Z M 12.550781 15.203125 L 11.652344 14.292969 L 9.183594 16.765625 L 7.5 15.066406 L 0 22.53125 L 0 30.652344 L 11.542969 19.152344 L 10.078125 17.671875 Z M 12.550781 15.203125 "/>
<path style=" stroke:none;fill-rule:evenodd;fill:rgb(99.607843%,99.607843%,99.607843%);fill-opacity:1;" d="M 40.046875 4.921875 L 4.175781 40.746094 L 12.316406 40.746094 L 44.085938 8.996094 L 46.121094 11.054688 L 48.992188 0.441406 L 48.992188 0 L 38.0625 2.898438 Z M 149.328125 24.804688 L 147.433594 40.234375 C 147.433594 40.449219 147.527344 40.554688 147.71875 40.554688 L 149.265625 40.554688 C 149.371094 40.554688 149.457031 40.523438 149.519531 40.457031 C 149.582031 40.394531 149.613281 40.320312 149.613281 40.234375 L 150.785156 30.867188 C 150.933594 29.683594 151.394531 28.703125 152.175781 27.929688 C 152.953125 27.160156 153.882812 26.75 154.957031 26.707031 L 155.367188 26.675781 C 155.8125 26.675781 156.203125 26.75 156.539062 26.898438 C 156.707031 26.984375 156.84375 26.921875 156.949219 26.707031 L 157.488281 25.152344 C 157.527344 24.960938 157.488281 24.824219 157.359375 24.738281 C 156.898438 24.464844 156.328125 24.328125 155.652344 24.328125 C 154.769531 24.328125 153.96875 24.542969 153.25 24.976562 C 152.535156 25.414062 151.921875 26.019531 151.417969 26.804688 C 151.375 26.847656 151.335938 26.863281 151.304688 26.851562 C 151.273438 26.839844 151.257812 26.804688 151.257812 26.738281 L 151.511719 24.804688 C 151.53125 24.71875 151.515625 24.644531 151.464844 24.582031 C 151.410156 24.519531 151.332031 24.488281 151.226562 24.488281 L 149.679688 24.488281 C 149.488281 24.488281 149.371094 24.59375 149.328125 24.804688 Z M 157.972656 26.359375 L 159.839844 26.359375 C 159.921875 26.359375 159.964844 26.402344 159.964844 26.488281 L 158.734375 36.550781 C 158.691406 36.976562 158.667969 37.28125 158.667969 37.472656 C 158.667969 38.660156 159.011719 39.472656 159.695312 39.917969 C 160.382812 40.363281 161.386719 40.585938 162.714844 40.585938 C 163.222656 40.585938 163.601562 40.574219 163.855469 40.554688 C 164.042969 40.554688 164.160156 40.449219 164.203125 40.234375 L 164.359375 38.933594 C 164.359375 38.722656 164.265625 38.617188 164.074219 38.617188 L 163.316406 38.617188 C 162.496094 38.617188 161.882812 38.457031 161.484375 38.140625 C 161.082031 37.824219 160.882812 37.28125 160.882812 36.519531 C 160.882812 36.246094 160.894531 36.023438 160.914062 35.855469 L 162.082031 26.488281 C 162.082031 26.402344 162.125 26.359375 162.210938 26.359375 L 165.6875 26.359375 C 165.773438 26.359375 165.84375 26.328125 165.910156 26.265625 C 165.972656 26.199219 166.015625 26.125 166.035156 26.042969 L 166.164062 24.804688 C 166.203125 24.59375 166.121094 24.488281 165.910156 24.488281 L 162.429688 24.488281 C 162.367188 24.488281 162.335938 24.445312 162.335938 24.359375 L 162.777344 20.675781 C 162.800781 20.589844 162.785156 20.515625 162.730469 20.453125 C 162.679688 20.390625 162.609375 20.359375 162.527344 20.359375 L 161.007812 20.359375 C 160.820312 20.359375 160.703125 20.464844 160.660156 20.675781 L 160.21875 24.359375 C 160.21875 24.402344 160.203125 24.433594 160.171875 24.453125 C 160.140625 24.476562 160.113281 24.484375 160.09375 24.484375 L 158.195312 24.484375 C 158.109375 24.484375 158.035156 24.519531 157.972656 24.582031 C 157.910156 24.644531 157.867188 24.71875 157.847656 24.804688 L 157.71875 26.042969 C 157.679688 26.253906 157.761719 26.359375 157.972656 26.359375 Z M 132.910156 32.550781 C 132.71875 33.96875 132.625 34.953125 132.625 35.503906 C 132.625 37.070312 133.085938 38.347656 134 39.332031 C 134.917969 40.316406 136.125 40.808594 137.621094 40.808594 C 138.609375 40.808594 139.492188 40.589844 140.261719 40.15625 C 141.03125 39.722656 141.667969 39.125 142.171875 38.363281 C 142.195312 38.300781 142.226562 38.273438 142.265625 38.28125 C 142.308594 38.292969 142.320312 38.332031 142.296875 38.394531 L 142.078125 40.238281 C 142.058594 40.320312 142.070312 40.394531 142.125 40.457031 C 142.179688 40.523438 142.246094 40.554688 142.332031 40.554688 L 143.910156 40.554688 C 144.101562 40.554688 144.21875 40.449219 144.257812 40.238281 L 146.15625 24.804688 C 146.15625 24.59375 146.0625 24.488281 145.871094 24.488281 L 144.324219 24.488281 C 144.21875 24.488281 144.132812 24.519531 144.070312 24.582031 C 144.007812 24.644531 143.972656 24.71875 143.972656 24.804688 L 143.753906 26.582031 C 143.730469 26.644531 143.707031 26.683594 143.675781 26.691406 C 143.644531 26.703125 143.617188 26.675781 143.59375 26.613281 C 142.941406 25.027344 141.65625 24.230469 139.738281 24.230469 C 138.347656 24.230469 137.109375 24.625 136.023438 25.40625 C 134.9375 26.191406 134.164062 27.207031 133.699219 28.457031 C 133.507812 28.984375 133.355469 29.5625 133.242188 30.1875 C 133.125 30.808594 133.015625 31.597656 132.910156 32.550781 Z M 136.007812 37.980469 C 135.375 37.410156 135.027344 36.679688 134.964844 35.789062 C 134.921875 35.492188 134.902344 35.25 134.902344 35.058594 C 134.902344 34.617188 134.984375 33.769531 135.152344 32.519531 C 135.28125 31.484375 135.378906 30.761719 135.453125 30.359375 C 135.527344 29.957031 135.628906 29.589844 135.753906 29.25 C 136.050781 28.359375 136.578125 27.628906 137.335938 27.058594 C 138.09375 26.488281 138.96875 26.199219 139.960938 26.199219 C 140.929688 26.199219 141.703125 26.492188 142.285156 27.074219 C 142.863281 27.65625 143.171875 28.382812 143.214844 29.25 C 143.238281 29.398438 143.246094 29.609375 143.246094 29.882812 C 143.246094 30.265625 143.171875 31.152344 143.027344 32.550781 C 142.878906 33.632812 142.769531 34.363281 142.695312 34.742188 C 142.621094 35.125 142.519531 35.472656 142.394531 35.789062 C 142.097656 36.679688 141.601562 37.410156 140.90625 37.980469 C 140.210938 38.554688 139.378906 38.839844 138.410156 38.839844 C 137.441406 38.839844 136.640625 38.554688 136.007812 37.980469 Z M 128.582031 21.183594 C 129.371094 21.945312 129.765625 22.972656 129.765625 24.261719 C 129.765625 24.582031 129.757812 24.824219 129.734375 24.996094 L 129.703125 25.089844 C 129.703125 25.28125 129.796875 25.375 129.988281 25.375 L 131.570312 25.28125 C 131.757812 25.28125 131.875 25.164062 131.917969 24.929688 C 131.960938 24.464844 131.980469 24.125 131.980469 23.914062 C 131.980469 22.136719 131.402344 20.71875 130.242188 19.660156 C 129.082031 18.601562 127.511719 18.070312 125.53125 18.070312 C 124.117188 18.070312 122.832031 18.363281 121.671875 18.945312 C 120.515625 19.527344 119.566406 20.347656 118.828125 21.40625 C 118.089844 22.464844 117.636719 23.679688 117.46875 25.058594 L 116.425781 33.789062 C 116.382812 34.042969 116.363281 34.402344 116.363281 34.871094 C 116.363281 36.691406 116.9375 38.140625 118.085938 39.21875 C 119.234375 40.300781 120.789062 40.839844 122.75 40.839844 C 124.183594 40.839844 125.476562 40.554688 126.636719 39.980469 C 127.796875 39.410156 128.738281 38.601562 129.46875 37.554688 C 130.195312 36.503906 130.640625 35.292969 130.8125 33.917969 C 130.851562 33.726562 130.757812 33.632812 130.527344 33.632812 L 128.976562 33.535156 C 128.765625 33.535156 128.660156 33.632812 128.660156 33.820312 L 128.628906 33.886719 C 128.460938 35.367188 127.859375 36.5625 126.828125 37.472656 C 125.792969 38.382812 124.519531 38.839844 123 38.839844 C 121.632812 38.839844 120.546875 38.457031 119.746094 37.695312 C 118.945312 36.933594 118.542969 35.90625 118.542969 34.617188 C 118.542969 34.296875 118.554688 34.054688 118.574219 33.886719 L 119.652344 24.996094 C 119.839844 23.511719 120.457031 22.316406 121.5 21.40625 C 122.542969 20.496094 123.8125 20.039062 125.308594 20.039062 C 126.699219 20.039062 127.789062 20.421875 128.582031 21.183594 Z M 75.09375 26.707031 L 83.28125 40.300781 C 83.367188 40.46875 83.515625 40.554688 83.726562 40.554688 L 87.296875 40.554688 C 87.402344 40.554688 87.492188 40.515625 87.566406 40.441406 C 87.640625 40.367188 87.675781 40.277344 87.675781 40.171875 L 87.675781 18.707031 C 87.675781 18.601562 87.640625 18.511719 87.566406 18.4375 C 87.492188 18.363281 87.402344 18.324219 87.296875 18.324219 L 83.597656 18.324219 C 83.492188 18.324219 83.402344 18.363281 83.328125 18.4375 C 83.253906 18.511719 83.21875 18.601562 83.21875 18.707031 L 83.25 32.042969 C 83.25 32.128906 83.230469 32.175781 83.1875 32.1875 C 83.144531 32.195312 83.101562 32.171875 83.0625 32.105469 L 74.90625 18.582031 C 74.820312 18.410156 74.671875 18.324219 74.460938 18.324219 L 70.890625 18.324219 C 70.785156 18.324219 70.695312 18.363281 70.621094 18.4375 C 70.546875 18.511719 70.511719 18.601562 70.511719 18.707031 L 70.511719 40.171875 C 70.511719 40.277344 70.546875 40.367188 70.621094 40.441406 C 70.695312 40.515625 70.785156 40.554688 70.890625 40.554688 L 74.585938 40.554688 C 74.691406 40.554688 74.785156 40.515625 74.855469 40.441406 C 74.929688 40.367188 74.96875 40.277344 74.96875 40.171875 L 74.90625 26.773438 C 74.90625 26.6875 74.925781 26.640625 74.96875 26.628906 C 75.011719 26.617188 75.050781 26.644531 75.09375 26.707031 Z M 62.195312 25.433594 L 62.195312 40.289062 C 62.195312 40.363281 62.230469 40.425781 62.304688 40.476562 C 62.378906 40.527344 62.46875 40.554688 62.574219 40.554688 L 66.273438 40.554688 C 66.378906 40.554688 66.46875 40.527344 66.542969 40.476562 C 66.617188 40.425781 66.652344 40.363281 66.652344 40.289062 L 66.652344 25.433594 C 66.652344 25.359375 66.617188 25.296875 66.542969 25.246094 C 66.46875 25.195312 66.378906 25.167969 66.273438 25.167969 L 62.574219 25.167969 C 62.46875 25.167969 62.378906 25.195312 62.304688 25.246094 C 62.230469 25.296875 62.195312 25.359375 62.195312 25.433594 Z M 44.488281 18.707031 L 44.488281 40.171875 C 44.488281 40.277344 44.527344 40.367188 44.601562 40.441406 C 44.675781 40.515625 44.765625 40.554688 44.871094 40.554688 L 48.570312 40.554688 C 48.675781 40.554688 48.761719 40.515625 48.835938 40.441406 C 48.910156 40.367188 48.945312 40.277344 48.945312 40.171875 L 48.945312 31.410156 C 48.945312 31.300781 49 31.25 49.105469 31.25 L 55.902344 31.25 C 56.007812 31.25 56.097656 31.214844 56.171875 31.140625 C 56.246094 31.066406 56.28125 30.976562 56.28125 30.867188 L 56.28125 27.789062 C 56.28125 27.683594 56.246094 27.59375 56.171875 27.519531 C 56.097656 27.445312 56.007812 27.40625 55.902344 27.40625 L 49.105469 27.40625 C 49 27.40625 48.945312 27.355469 48.945312 27.25 L 48.945312 22.328125 C 48.945312 22.21875 49 22.167969 49.105469 22.167969 L 59.445312 22.167969 C 59.550781 22.167969 59.636719 22.128906 59.710938 22.054688 C 59.785156 21.984375 59.824219 21.890625 59.824219 21.785156 L 59.824219 18.707031 C 59.824219 18.601562 59.785156 18.511719 59.710938 18.4375 C 59.636719 18.363281 59.550781 18.324219 59.445312 18.324219 L 44.871094 18.324219 C 44.765625 18.324219 44.675781 18.363281 44.601562 18.4375 C 44.527344 18.511719 44.488281 18.601562 44.488281 18.707031 Z M 44.488281 18.707031 "/>
</g>
</svg>
