<?xml version="1.0" encoding="UTF-8"?>
<svg xmlns="http://www.w3.org/2000/svg" xmlns:xlink="http://www.w3.org/1999/xlink" width="142px" height="35px" viewBox="0 0 142 35" version="1.1">
<g id="surface1">
<path style=" stroke:none;fill-rule:evenodd;fill:rgb(73.72549%,90.588235%,4.705882%);fill-opacity:1;" d="M 4.90625 8.554688 L 26.167969 8.554688 L 26.167969 9.652344 L 31.074219 4.789062 L 31.074219 3.632812 L 0 3.632812 L 0 16.664062 L 4.90625 11.722656 Z M 84.78125 31.421875 C 84.78125 29.648438 83.351562 28.210938 81.582031 28.210938 C 79.816406 28.210938 78.382812 29.648438 78.382812 31.421875 C 78.382812 33.191406 79.816406 34.628906 81.582031 34.628906 C 83.351562 34.628906 84.78125 33.191406 84.78125 31.421875 Z M 91.332031 18.921875 C 91.332031 20.691406 92.765625 22.128906 94.53125 22.128906 C 96.300781 22.128906 97.734375 20.691406 97.734375 18.921875 C 97.734375 17.148438 96.300781 15.714844 94.53125 15.714844 C 92.765625 15.714844 91.332031 17.148438 91.332031 18.921875 Z M 78.898438 15.992188 L 91.875 34.710938 L 98.621094 34.710938 L 85.640625 15.992188 Z M 52.640625 17.695312 L 54.890625 17.695312 L 54.890625 19.886719 L 56.96875 19.886719 L 56.96875 15.644531 L 52.640625 15.644531 Z M 26.167969 29.863281 L 18.152344 29.863281 L 13.21875 34.785156 L 31.074219 34.785156 L 31.074219 16.976562 L 26.167969 21.871094 Z M 17.714844 11.097656 L 0 28.742188 L 0 34.78125 L 0.898438 34.78125 L 21.179688 14.582031 L 20.074219 13.472656 L 23.703125 9.859375 L 21.984375 9.859375 L 19.21875 12.613281 Z M 10.734375 12.976562 L 9.96875 12.203125 L 7.855469 14.3125 L 6.414062 12.863281 L 0 19.234375 L 0 26.167969 L 9.871094 16.347656 L 8.621094 15.085938 Z M 10.734375 12.976562 "/>
<path style=" stroke:none;fill-rule:evenodd;fill:rgb(99.607843%,99.607843%,99.607843%);fill-opacity:1;" d="M 34.257812 4.203125 L 3.574219 34.785156 L 10.535156 34.785156 L 37.710938 7.679688 L 39.453125 9.4375 L 41.90625 0.375 L 41.90625 0 L 32.558594 2.476562 Z M 127.738281 21.175781 L 126.117188 34.347656 C 126.117188 34.527344 126.199219 34.617188 126.359375 34.617188 L 127.6875 34.617188 C 127.777344 34.617188 127.847656 34.59375 127.902344 34.539062 C 127.957031 34.484375 127.984375 34.421875 127.984375 34.347656 L 128.984375 26.351562 C 129.109375 25.339844 129.507812 24.503906 130.175781 23.84375 C 130.839844 23.183594 131.636719 22.835938 132.554688 22.800781 L 132.90625 22.773438 C 133.285156 22.773438 133.617188 22.835938 133.90625 22.960938 C 134.050781 23.035156 134.167969 22.980469 134.257812 22.800781 L 134.71875 21.472656 C 134.753906 21.308594 134.71875 21.191406 134.609375 21.121094 C 134.214844 20.882812 133.726562 20.765625 133.148438 20.765625 C 132.390625 20.765625 131.707031 20.953125 131.09375 21.324219 C 130.480469 21.695312 129.957031 22.210938 129.527344 22.882812 C 129.488281 22.917969 129.457031 22.929688 129.429688 22.921875 C 129.402344 22.914062 129.390625 22.882812 129.390625 22.828125 L 129.605469 21.175781 C 129.625 21.101562 129.609375 21.039062 129.566406 20.984375 C 129.519531 20.929688 129.453125 20.902344 129.363281 20.902344 L 128.039062 20.902344 C 127.875 20.902344 127.777344 20.992188 127.738281 21.175781 Z M 135.132812 22.503906 L 136.730469 22.503906 C 136.800781 22.503906 136.835938 22.539062 136.835938 22.609375 L 135.785156 31.203125 C 135.746094 31.566406 135.730469 31.828125 135.730469 31.988281 C 135.730469 33 136.023438 33.699219 136.609375 34.078125 C 137.195312 34.457031 138.054688 34.644531 139.191406 34.644531 C 139.625 34.644531 139.949219 34.636719 140.164062 34.617188 C 140.328125 34.617188 140.425781 34.527344 140.460938 34.347656 L 140.597656 33.238281 C 140.597656 33.054688 140.515625 32.964844 140.351562 32.964844 L 139.703125 32.964844 C 139 32.964844 138.480469 32.828125 138.136719 32.558594 C 137.792969 32.289062 137.621094 31.828125 137.621094 31.175781 C 137.621094 30.941406 137.632812 30.75 137.648438 30.605469 L 138.648438 22.609375 C 138.648438 22.539062 138.6875 22.503906 138.757812 22.503906 L 141.734375 22.503906 C 141.804688 22.503906 141.867188 22.476562 141.921875 22.421875 C 141.976562 22.367188 142.011719 22.304688 142.03125 22.230469 L 142.140625 21.175781 C 142.175781 20.992188 142.101562 20.902344 141.921875 20.902344 L 138.945312 20.902344 C 138.894531 20.902344 138.867188 20.867188 138.867188 20.792969 L 139.246094 17.648438 C 139.261719 17.578125 139.25 17.515625 139.203125 17.460938 C 139.160156 17.40625 139.101562 17.378906 139.027344 17.378906 L 137.730469 17.378906 C 137.566406 17.378906 137.46875 17.46875 137.433594 17.648438 L 137.054688 20.792969 C 137.054688 20.832031 137.039062 20.859375 137.011719 20.875 C 136.988281 20.894531 136.964844 20.902344 136.945312 20.902344 L 135.324219 20.902344 C 135.25 20.902344 135.1875 20.929688 135.132812 20.984375 C 135.078125 21.039062 135.042969 21.101562 135.027344 21.175781 L 134.917969 22.230469 C 134.882812 22.410156 134.953125 22.503906 135.132812 22.503906 Z M 113.695312 27.789062 C 113.53125 29 113.449219 29.839844 113.449219 30.308594 C 113.449219 31.648438 113.84375 32.734375 114.625 33.574219 C 115.410156 34.414062 116.441406 34.835938 117.722656 34.835938 C 118.570312 34.835938 119.324219 34.652344 119.980469 34.28125 C 120.640625 33.910156 121.183594 33.398438 121.617188 32.75 C 121.636719 32.695312 121.664062 32.671875 121.699219 32.679688 C 121.734375 32.6875 121.742188 32.722656 121.726562 32.777344 L 121.535156 34.347656 C 121.519531 34.421875 121.53125 34.484375 121.578125 34.539062 C 121.621094 34.59375 121.679688 34.617188 121.753906 34.617188 L 123.105469 34.617188 C 123.265625 34.617188 123.367188 34.527344 123.402344 34.347656 L 125.027344 21.175781 C 125.027344 20.992188 124.945312 20.902344 124.78125 20.902344 L 123.457031 20.902344 C 123.367188 20.902344 123.292969 20.929688 123.238281 20.984375 C 123.1875 21.039062 123.160156 21.101562 123.160156 21.175781 L 122.96875 22.691406 C 122.953125 22.746094 122.929688 22.777344 122.902344 22.785156 C 122.875 22.796875 122.851562 22.773438 122.835938 22.71875 C 122.277344 21.363281 121.175781 20.6875 119.535156 20.6875 C 118.34375 20.6875 117.285156 21.019531 116.359375 21.6875 C 115.429688 22.359375 114.765625 23.226562 114.371094 24.292969 C 114.207031 24.742188 114.078125 25.234375 113.976562 25.769531 C 113.878906 26.300781 113.785156 26.976562 113.691406 27.789062 Z M 116.34375 32.421875 C 115.804688 31.933594 115.503906 31.3125 115.453125 30.554688 C 115.414062 30.300781 115.398438 30.09375 115.398438 29.929688 C 115.398438 29.550781 115.46875 28.828125 115.613281 27.761719 C 115.722656 26.875 115.808594 26.261719 115.871094 25.917969 C 115.933594 25.574219 116.019531 25.257812 116.128906 24.96875 C 116.378906 24.210938 116.832031 23.585938 117.480469 23.097656 C 118.128906 22.609375 118.878906 22.367188 119.722656 22.367188 C 120.554688 22.367188 121.21875 22.613281 121.710938 23.113281 C 122.207031 23.609375 122.472656 24.226562 122.511719 24.96875 C 122.527344 25.09375 122.539062 25.277344 122.539062 25.511719 C 122.539062 25.835938 122.472656 26.59375 122.347656 27.789062 C 122.222656 28.710938 122.128906 29.332031 122.0625 29.660156 C 122 29.984375 121.914062 30.28125 121.808594 30.554688 C 121.554688 31.3125 121.128906 31.933594 120.535156 32.421875 C 119.941406 32.910156 119.226562 33.15625 118.398438 33.15625 C 117.570312 33.15625 116.882812 32.910156 116.34375 32.421875 Z M 109.992188 18.082031 C 110.667969 18.734375 111.003906 19.609375 111.003906 20.710938 C 111.003906 20.984375 110.996094 21.191406 110.980469 21.335938 L 110.953125 21.417969 C 110.953125 21.582031 111.03125 21.660156 111.195312 21.660156 L 112.546875 21.582031 C 112.710938 21.582031 112.808594 21.480469 112.84375 21.28125 C 112.882812 20.882812 112.898438 20.59375 112.898438 20.414062 C 112.898438 18.898438 112.402344 17.6875 111.410156 16.78125 C 110.417969 15.878906 109.078125 15.425781 107.382812 15.425781 C 106.171875 15.425781 105.074219 15.675781 104.082031 16.171875 C 103.089844 16.667969 102.28125 17.371094 101.648438 18.273438 C 101.019531 19.175781 100.628906 20.214844 100.484375 21.390625 L 99.59375 28.84375 C 99.558594 29.0625 99.539062 29.367188 99.539062 29.765625 C 99.539062 31.320312 100.03125 32.558594 101.011719 33.480469 C 101.996094 34.402344 103.324219 34.863281 105 34.863281 C 106.226562 34.863281 107.335938 34.617188 108.328125 34.132812 C 109.320312 33.644531 110.125 32.953125 110.75 32.058594 C 111.371094 31.164062 111.753906 30.128906 111.898438 28.953125 C 111.933594 28.792969 111.851562 28.710938 111.65625 28.710938 L 110.328125 28.628906 C 110.148438 28.628906 110.058594 28.710938 110.058594 28.871094 L 110.03125 28.925781 C 109.886719 30.191406 109.375 31.210938 108.492188 31.988281 C 107.605469 32.765625 106.515625 33.15625 105.21875 33.15625 C 104.046875 33.15625 103.117188 32.828125 102.433594 32.179688 C 101.746094 31.527344 101.40625 30.652344 101.40625 29.550781 C 101.40625 29.277344 101.414062 29.070312 101.433594 28.925781 L 102.351562 21.335938 C 102.515625 20.070312 103.042969 19.050781 103.933594 18.273438 C 104.828125 17.496094 105.914062 17.105469 107.191406 17.105469 C 108.382812 17.105469 109.316406 17.433594 109.992188 18.082031 Z M 64.238281 22.800781 L 71.242188 34.402344 C 71.3125 34.546875 71.441406 34.617188 71.621094 34.617188 L 74.675781 34.617188 C 74.765625 34.617188 74.84375 34.585938 74.90625 34.523438 C 74.96875 34.460938 75 34.382812 75 34.292969 L 75 15.96875 C 75 15.878906 74.96875 15.800781 74.90625 15.738281 C 74.84375 15.675781 74.765625 15.644531 74.675781 15.644531 L 71.511719 15.644531 C 71.421875 15.644531 71.34375 15.675781 71.28125 15.738281 C 71.21875 15.800781 71.1875 15.878906 71.1875 15.96875 L 71.214844 27.355469 C 71.214844 27.425781 71.195312 27.46875 71.160156 27.476562 C 71.125 27.484375 71.085938 27.464844 71.050781 27.410156 L 64.074219 15.859375 C 64.003906 15.714844 63.875 15.644531 63.695312 15.644531 L 60.640625 15.644531 C 60.550781 15.644531 60.472656 15.675781 60.410156 15.738281 C 60.347656 15.800781 60.316406 15.878906 60.316406 15.96875 L 60.316406 34.292969 C 60.316406 34.382812 60.347656 34.460938 60.410156 34.523438 C 60.472656 34.585938 60.550781 34.617188 60.640625 34.617188 L 63.804688 34.617188 C 63.894531 34.617188 63.972656 34.585938 64.035156 34.523438 C 64.097656 34.460938 64.128906 34.382812 64.128906 34.292969 L 64.074219 22.855469 C 64.074219 22.78125 64.09375 22.742188 64.128906 22.734375 C 64.164062 22.722656 64.199219 22.746094 64.238281 22.800781 Z M 53.203125 21.710938 L 53.203125 34.394531 C 53.203125 34.457031 53.234375 34.507812 53.296875 34.554688 C 53.359375 34.597656 53.4375 34.617188 53.527344 34.617188 L 56.691406 34.617188 C 56.78125 34.617188 56.859375 34.597656 56.921875 34.554688 C 56.984375 34.507812 57.015625 34.457031 57.015625 34.394531 L 57.015625 21.710938 C 57.015625 21.648438 56.984375 21.59375 56.921875 21.550781 C 56.859375 21.507812 56.78125 21.484375 56.691406 21.484375 L 53.527344 21.484375 C 53.4375 21.484375 53.359375 21.507812 53.296875 21.550781 C 53.234375 21.59375 53.203125 21.648438 53.203125 21.710938 Z M 38.058594 15.96875 L 38.058594 34.292969 C 38.058594 34.382812 38.089844 34.460938 38.152344 34.523438 C 38.214844 34.585938 38.292969 34.617188 38.382812 34.617188 L 41.546875 34.617188 C 41.636719 34.617188 41.714844 34.585938 41.777344 34.523438 C 41.839844 34.460938 41.871094 34.382812 41.871094 34.292969 L 41.871094 26.8125 C 41.871094 26.722656 41.914062 26.675781 42.007812 26.675781 L 47.820312 26.675781 C 47.910156 26.675781 47.988281 26.644531 48.050781 26.582031 C 48.113281 26.519531 48.144531 26.441406 48.144531 26.351562 L 48.144531 23.722656 C 48.144531 23.632812 48.113281 23.554688 48.050781 23.492188 C 47.988281 23.429688 47.910156 23.394531 47.820312 23.394531 L 42.007812 23.394531 C 41.914062 23.394531 41.871094 23.351562 41.871094 23.261719 L 41.871094 19.058594 C 41.871094 18.96875 41.914062 18.925781 42.007812 18.925781 L 50.851562 18.925781 C 50.941406 18.925781 51.015625 18.890625 51.078125 18.828125 C 51.140625 18.765625 51.175781 18.6875 51.175781 18.597656 L 51.175781 15.96875 C 51.175781 15.878906 51.144531 15.800781 51.078125 15.738281 C 51.015625 15.675781 50.941406 15.644531 50.851562 15.644531 L 38.382812 15.644531 C 38.292969 15.644531 38.214844 15.675781 38.152344 15.738281 C 38.089844 15.800781 38.058594 15.878906 38.058594 15.96875 Z M 38.058594 15.96875 "/>
</g>
</svg>
