<?xml version="1.0" encoding="UTF-8"?>
<!DOCTYPE svg PUBLIC "-//W3C//DTD SVG 1.1//EN" "http://www.w3.org/Graphics/SVG/1.1/DTD/svg11.dtd">
<!-- Creator: CorelDRAW -->
<svg xmlns="http://www.w3.org/2000/svg" xml:space="preserve" width="103.401mm" height="25.3006mm" version="1.1" style="shape-rendering:geometricPrecision; text-rendering:geometricPrecision; image-rendering:optimizeQuality; fill-rule:evenodd; clip-rule:evenodd"
viewBox="0 0 12637.69 3092.25"
 xmlns:xlink="http://www.w3.org/1999/xlink"
 xmlns:xodm="http://www.corel.com/coreldraw/odm/2003">
 <defs>
  <style type="text/css">
   <![CDATA[
    .fil1 {fill:#FEFEFE}
    .fil0 {fill:#BCE70C}
   ]]>
  </style>
 </defs>
 <g id="Layer_x0020_1">
  <metadata id="CorelCorpID_0Corel-Layer"/>
  <path class="fil0" d="M436.17 758.83l1890.39 0 0 97.34 436.09 -431.47 0 -102.38 -2762.65 0 0 1155.67 436.17 -438.26 0 -280.89zm7101.41 2028.07c0,-157.15 -127.35,-284.5 -284.49,-284.5 -157.15,0 -284.5,127.35 -284.5,284.5 0,157.14 127.35,284.49 284.5,284.49 157.14,0 284.49,-127.35 284.49,-284.49zm582.27 -1108.71c0,157.15 127.43,284.5 284.5,284.5 157.15,0 284.57,-127.35 284.57,-284.5 0,-157.14 -127.41,-284.49 -284.57,-284.49 -157.08,0 -284.5,127.35 -284.5,284.49zm-1105.52 -259.89l1153.87 1660.59 599.66 0 -1153.87 -1660.59 -599.66 0zm-2334.28 151.38l200 0 0 194.31 184.86 0 0 -194.31 0 -182.19 -184.86 0 -200 0 0 182.19zm-2353.48 1079.11l-712.79 0 -438.62 436.52 1587.51 0 0 -1579.42 -436.09 433.99 0 708.9zm-751.68 -1664.49l-1574.88 1565.14 0 535.52 79.94 0 1802.88 -1791.41 -97.98 -98.42 322.45 -320.57 -152.68 0 -245.82 244.24 -133.92 -134.5zm-620.44 166.75l-68.26 -68.69 -187.89 187.17 -128.07 -128.72 -570.22 565.17 0 615.04 877.74 -870.95 -111.26 -111.92 187.96 -187.09z"/>
  <path class="fil1" d="M3045.64 372.66l-2727.96 2712.65 618.85 0 2416.18 -2404.27 154.84 156.06 218.26 -803.78 0 -33.33 -831.2 219.56 151.02 153.11zm8311.12 1505.4l-144.23 1168.51c0,16.02 7.21,24.03 21.65,24.03l117.83 0c8.01,0 14.42,-2.38 19.19,-7.21 4.83,-4.84 7.21,-10.39 7.21,-16.82l88.96 -709.33c11.26,-89.76 46.54,-163.86 105.78,-222.38 59.3,-58.51 129.87,-89.32 211.62,-92.57l31.24 -2.38c33.7,0 63.35,5.63 88.96,16.82 12.85,6.42 23.23,1.59 31.24,-14.43l40.91 -117.82c3.18,-14.43 0,-24.82 -9.67,-31.24 -35.21,-20.86 -78.5,-31.25 -129.8,-31.25 -67.32,0 -128.22,16.45 -182.77,49.28 -54.47,32.9 -100.94,78.94 -139.39,138.26 -3.25,3.24 -6.06,4.4 -8.45,3.61 -2.38,-0.79 -3.61,-3.61 -3.61,-8.45l19.26 -146.62c1.59,-6.42 0.37,-12.05 -3.61,-16.81 -4.05,-4.84 -10.03,-7.22 -18.04,-7.22l-117.82 0c-14.43,0 -23.23,8.02 -26.49,24.03zm657.39 117.83l141.85 0c6.43,0 9.59,3.17 9.59,9.59l-93.72 762.14c-3.25,32.11 -4.84,55.34 -4.84,69.78 0,89.76 26.05,151.46 78.15,185.08 52.09,33.68 128.65,50.5 229.59,50.5 38.52,0 67.32,-0.79 86.58,-2.38 14.43,0 23.23,-8.01 26.47,-24.03l11.98 -98.56c0,-16.08 -7.21,-24.1 -21.65,-24.1l-57.65 0c-62.55,0 -109.02,-11.98 -139.47,-35.99 -30.45,-24.1 -45.67,-64.95 -45.67,-122.66 0,-20.86 0.79,-37.67 2.38,-50.51l88.96 -709.26c0,-6.43 3.18,-9.59 9.59,-9.59l264.51 0c6.43,0 11.98,-2.46 16.82,-7.22 4.83,-4.83 8.01,-10.46 9.59,-16.88l9.67 -93.73c3.18,-16.01 -3.25,-24.03 -19.26,-24.03l-264.51 0c-4.77,0 -7.15,-3.24 -7.15,-9.67l33.62 -278.87c1.59,-6.42 0.44,-12.05 -3.61,-16.81 -3.97,-4.84 -9.24,-7.22 -15.58,-7.22l-115.45 0c-14.42,0 -23.23,8.02 -26.47,24.03l-33.62 278.87c0,3.25 -1.23,5.63 -3.62,7.22 -2.37,1.58 -4.4,2.44 -5.99,2.44l-144.31 0c-6.42,0 -11.98,2.38 -16.81,7.22 -4.84,4.75 -8.01,10.39 -9.59,16.81l-9.67 93.73c-3.18,16.08 3.24,24.1 19.26,24.1zm-1906.21 468.84c-14.42,107.37 -21.57,181.9 -21.57,223.6 0,118.63 34.86,215.17 104.55,289.7 69.7,74.53 161.48,111.83 275.26,111.83 75.4,0 142.29,-16.45 200.81,-49.35 58.51,-32.83 107,-78.14 145.45,-135.79 1.59,-4.84 4.05,-6.86 7.21,-6.06 3.18,0.79 3.97,3.61 2.38,8.45l-16.81 139.47c-1.59,6.43 -0.44,11.98 3.61,16.82 4.05,4.83 9.24,7.21 15.66,7.21l120.2 0c14.43,0 23.23,-8.01 26.41,-24.03l144.31 -1168.51c0,-16.01 -7.21,-24.03 -21.65,-24.03l-117.83 0c-8.01,0 -14.42,2.38 -19.26,7.22 -4.75,4.75 -7.21,10.39 -7.21,16.81l-16.82 134.64c-1.59,4.77 -3.61,7.58 -5.99,8.37 -2.37,0.87 -4.4,-1.16 -5.99,-5.99 -49.71,-120.2 -147.47,-180.31 -293.37,-180.31 -105.78,0 -199.94,29.65 -282.48,88.96 -82.55,59.31 -141.49,136.23 -176.71,230.81 -14.51,40.05 -26.12,83.77 -34.92,131.03 -8.81,47.26 -17.25,107 -25.26,179.15zm235.65 411.14c-48.06,-43.29 -74.53,-98.57 -79.37,-165.89 -3.17,-22.5 -4.75,-40.91 -4.75,-55.34 0,-33.62 6.42,-97.76 19.19,-192.35 9.67,-78.5 17.25,-133.05 22.87,-163.51 5.63,-30.45 13.21,-58.43 22.81,-84.12 22.44,-67.32 62.55,-122.59 120.28,-165.88 57.65,-43.29 124.18,-64.94 199.5,-64.94 73.75,0 132.69,22 176.78,66.08 44.08,44.08 67.67,99 70.92,164.73 1.59,11.18 2.38,27.27 2.38,48.13 0,28.78 -5.63,96.1 -16.82,201.94 -11.26,81.75 -19.62,137.02 -25.25,165.89 -5.62,28.86 -13.2,55.27 -22.87,79.36 -22.44,67.32 -60.11,122.6 -112.99,165.89 -52.88,43.29 -116.24,64.94 -189.91,64.94 -73.75,0 -134.71,-21.65 -182.77,-64.94zm-564.8 -1271.91c60.17,57.72 90.19,135.43 90.19,233.2 0,24.1 -0.79,42.5 -2.38,55.34l-2.46 7.21c0,14.43 7.22,21.65 21.65,21.65l120.22 -7.21c14.42,0 23.31,-8.87 26.47,-26.49 3.25,-35.28 4.84,-60.89 4.84,-76.91 0,-134.64 -44.08,-242.07 -132.25,-322.16 -88.17,-80.16 -207.59,-120.28 -358.24,-120.28 -107.43,0 -205.21,22.07 -293.38,66.16 -88.1,44.08 -160.24,106.14 -216.38,186.3 -56.06,80.16 -90.55,172.31 -103.4,276.49l-79.3 661.21c-3.25,19.26 -4.84,46.47 -4.84,81.75 0,137.88 43.66,247.7 131.03,329.37 87.38,81.75 205.56,122.66 354.63,122.66 109.02,0 207.58,-21.65 295.75,-64.94 88.17,-43.29 159.89,-104.55 215.23,-183.92 55.28,-79.37 89.33,-171.14 102.18,-275.34 3.18,-14.36 -4.05,-21.57 -21.65,-21.57l-117.83 -7.21c-16.01,0 -24.03,7.21 -24.03,21.57l-2.44 4.83c-12.77,112.2 -58.45,202.75 -137.02,271.73 -78.58,68.91 -175.54,103.4 -290.92,103.4 -104.19,0 -186.73,-28.87 -247.63,-86.58 -60.96,-57.72 -91.41,-135.43 -91.41,-233.21 0,-24.09 0.86,-42.5 2.44,-55.34l81.75 -673.18c14.43,-112.2 61.33,-202.82 140.63,-271.73 79.37,-68.91 175.91,-103.39 289.76,-103.39 105.78,0 188.68,28.86 248.79,86.58zm-4067.83 418.34l622.75 1029.05c6.43,12.85 17.67,19.26 33.7,19.26l271.66 0c8.01,0 14.86,-2.81 20.41,-8.45 5.63,-5.55 8.45,-12.41 8.45,-20.41l0 -1625.31c0,-8.02 -2.81,-14.87 -8.45,-20.5 -5.55,-5.56 -12.41,-8.37 -20.41,-8.37l-281.33 0c-8.01,0 -14.79,2.81 -20.42,8.37 -5.62,5.62 -8.37,12.48 -8.37,20.5l2.38 1009.77c0,6.42 -1.59,10.03 -4.83,10.83 -3.18,0.78 -6.43,-1.16 -9.59,-5.99l-620.3 -1024.22c-6.42,-12.83 -17.67,-19.26 -33.7,-19.26l-271.65 0c-8.09,0 -14.87,2.81 -20.5,8.37 -5.56,5.62 -8.37,12.48 -8.37,20.5l0 1625.31c0,8.01 2.81,14.86 8.37,20.41 5.62,5.63 12.41,8.45 20.5,8.45l281.24 0c8.02,0 14.87,-2.81 20.42,-8.45 5.63,-5.55 8.45,-12.41 8.45,-20.41l-4.77 -1014.61c0,-6.43 1.59,-10.03 4.77,-10.83 3.24,-0.79 6.42,1.16 9.59,5.99zm-980.99 -96.68l0 1125c0,5.55 2.81,10.24 8.45,14.14 5.55,3.9 12.41,5.84 20.41,5.84l281.33 0c8.01,0 14.79,-1.94 20.42,-5.84 5.62,-3.9 8.45,-8.59 8.45,-14.14l0 -1125c0,-5.56 -2.82,-10.25 -8.45,-14.15 -5.63,-3.89 -12.42,-5.84 -20.42,-5.84l-281.33 0c-8.01,0 -14.86,1.96 -20.41,5.84 -5.63,3.9 -8.45,8.59 -8.45,14.15zm-1346.44 -509.18l0 1625.31c0,8.01 2.81,14.86 8.37,20.41 5.62,5.63 12.48,8.45 20.48,8.45l281.33 0c8.01,0 14.79,-2.81 20.42,-8.45 5.62,-5.55 8.36,-12.41 8.36,-20.41l0 -663.59c0,-8.01 4.05,-12.05 12.05,-12.05l516.91 0c8.08,0 14.86,-2.74 20.5,-8.36 5.62,-5.63 8.36,-12.42 8.36,-20.5l0 -233.2c0,-8.01 -2.74,-14.79 -8.36,-20.42 -5.63,-5.62 -12.42,-8.45 -20.5,-8.45l-516.91 0c-8.01,0 -12.05,-3.96 -12.05,-11.98l0 -372.66c0,-8.08 4.05,-12.05 12.05,-12.05l786.25 0c8.01,0 14.79,-2.81 20.41,-8.45 5.63,-5.55 8.45,-12.41 8.45,-20.41l0 -233.2c0,-8.02 -2.81,-14.87 -8.45,-20.5 -5.62,-5.56 -12.41,-8.37 -20.41,-8.37l-1108.42 0c-8.01,0 -14.86,2.81 -20.48,8.37 -5.56,5.62 -8.37,12.48 -8.37,20.5z"/>
 </g>
</svg>
